# xmcd
#
# Track frame offsets:
#	150
#	11976
#	27693
#	43145
#	51936
#	67220
#	81237
#	93955
#	107558
#	118974
#	129575
#	141370
#	154138
#
# Disc length: 2215 seconds
#
# Revision: 0
# Processed by: cddbd v1.5.1PL2 Copyright (c) Steve Scherf et al.
# Submitted via: audiograbber 1.83.01
#
DISCID=c408a50d
DTITLE=Hildegard Knef - Der Mond hatte frei
DYEAR=1900
DGENRE=
TTITLE0=Sei mal verliebt
TTITLE1=Geh fort von hier
TTITLE2=Ich bin leider viel zu faul
TTITLE3=Die Herrn
TTITLE4=Nichts haut mich um aber du
TTITLE5=Endstation
TTITLE6=Der Mond hatte frei
TTITLE7=Vergeßner Sonnenhut im Gras
TTITLE8=Na und
TTITLE9=Das Glück kennt nur Minuten
TTITLE10=Protest eines Denkmals
TTITLE11=Der Mann die Frau das mädchen
TTITLE12=Halt mich fest
EXTD=Schallplatte
EXTT0=
EXTT1=
EXTT2=
EXTT3=
EXTT4=
EXTT5=
EXTT6=
EXTT7=
EXTT8=
EXTT9=
EXTT10=
EXTT11=
EXTT12=
PLAYORDER=
